<?xml version="1.0" standalone="no"?>
<!DOCTYPE svg PUBLIC "-//W3C//DTD SVG 20010904//EN"
 "http://www.w3.org/TR/2001/REC-SVG-20010904/DTD/svg10.dtd">
<svg version="1.0" xmlns="http://www.w3.org/2000/svg"
 width="512.000000pt" height="512.000000pt" viewBox="0 0 512.000000 512.000000"
 preserveAspectRatio="xMidYMid meet">
<metadata>
Created by potrace 1.14, written by Peter Selinger 2001-2017
</metadata>
<g transform="translate(0.000000,512.000000) scale(0.100000,-0.100000)"
fill="#000000" stroke="none">
<path d="M1710 4544 c-192 -36 -294 -66 -381 -110 -46 -23 -79 -69 -79 -109 0
-32 33 -87 64 -106 44 -27 77 -24 187 15 146 53 235 68 389 69 171 0 280 -22
456 -93 65 -27 147 17 160 85 8 46 -17 99 -64 130 -45 30 -177 77 -283 100
-72 16 -393 29 -449 19z"/>
<path d="M3315 3964 c-91 -16 -211 -48 -260 -68 -43 -18 -68 -57 -68 -106 0
-47 22 -84 66 -110 41 -25 79 -25 152 0 32 11 67 20 79 20 17 0 15 -5 -16 -37
-149 -156 -138 -437 22 -587 134 -126 341 -81 429 92 89 175 60 390 -71 515
l-50 47 40 0 c101 0 254 -42 382 -104 85 -41 112 -44 157 -16 63 38 78 112 37
175 -22 34 -171 106 -289 140 -187 54 -436 70 -610 39z"/>
<path d="M1800 3901 c-77 -24 -162 -103 -199 -185 -69 -157 -40 -351 70 -471
62 -67 109 -89 194 -89 116 0 202 59 258 179 66 138 59 299 -17 426 -67 112
-199 172 -306 140z"/>
<path d="M1483 2570 c-17 -6 -43 -24 -57 -40 -40 -48 -42 -90 -13 -209 34
-141 40 -201 27 -291 -20 -140 -55 -195 -247 -387 -284 -283 -353 -422 -340
-682 15 -277 132 -537 320 -707 116 -105 297 -199 444 -229 110 -23 286 -22
393 3 47 11 168 39 270 62 211 47 285 80 337 149 59 77 53 172 -15 218 l-33
22 38 20 c77 39 123 112 123 196 0 77 -22 113 -109 172 -2 1 8 12 24 24 133
105 142 272 19 362 -24 18 -43 34 -44 37 0 3 189 52 419 109 374 93 424 107
457 134 70 58 84 147 37 237 -35 66 -76 90 -155 90 -58 0 -505 -99 -1173 -259
-441 -106 -405 -99 -429 -75 -24 23 -20 38 24 89 89 103 125 220 117 385 -15
313 -166 554 -359 575 -23 2 -57 0 -75 -5z"/>
<path d="M2295 2373 c-16 -2 -72 -10 -123 -19 -77 -13 -97 -21 -121 -45 -51
-51 -45 -126 16 -179 40 -36 45 -36 238 -10 245 33 514 -27 720 -160 76 -50
111 -57 159 -35 44 21 66 59 66 116 0 37 -6 48 -44 85 -56 53 -279 164 -401
199 -151 44 -374 65 -510 48z"/>
</g>
</svg>
