<?xml version="1.0" standalone="no"?>
<!DOCTYPE svg PUBLIC "-//W3C//DTD SVG 20010904//EN"
 "http://www.w3.org/TR/2001/REC-SVG-20010904/DTD/svg10.dtd">
<svg version="1.0" xmlns="http://www.w3.org/2000/svg"
 width="512.000000pt" height="512.000000pt" viewBox="0 0 512.000000 512.000000"
 preserveAspectRatio="xMidYMid meet">
<metadata>
Created by potrace 1.14, written by Peter Selinger 2001-2017
</metadata>
<g transform="translate(0.000000,512.000000) scale(0.100000,-0.100000)"
fill="#000000" stroke="none">
<path d="M2427 5044 c-1 -1 -24 -5 -52 -8 -85 -11 -185 -30 -185 -36 0 -3 -10
-7 -22 -8 -41 -4 -77 -15 -110 -33 -10 -5 -23 -9 -28 -9 -23 0 -199 -90 -267
-136 -106 -73 -308 -256 -353 -320 -8 -12 -34 -48 -57 -81 -39 -56 -105 -176
-103 -188 0 -3 -7 -19 -16 -36 -15 -30 -51 -155 -61 -214 -11 -67 -8 -281 4
-335 35 -148 110 -326 192 -455 17 -27 34 -58 37 -67 4 -10 10 -18 15 -18 5 0
9 -4 9 -9 0 -13 121 -195 132 -199 4 -2 6 -8 2 -13 -3 -5 2 -12 10 -15 9 -3
16 -12 16 -20 0 -8 5 -14 10 -14 6 0 10 -7 10 -15 0 -8 5 -15 10 -15 6 0 10
-7 10 -15 0 -8 5 -15 10 -15 6 0 10 -6 10 -14 0 -8 4 -16 8 -18 5 -1 41 -52
82 -113 41 -60 77 -112 80 -115 13 -13 50 -70 50 -79 0 -5 7 -11 15 -15 8 -3
15 -10 15 -16 0 -6 23 -42 51 -80 45 -62 49 -73 38 -88 -8 -9 -36 -44 -64 -78
-27 -33 -62 -76 -77 -95 -14 -19 -35 -44 -45 -55 -16 -19 -54 -65 -106 -127
-10 -12 -28 -33 -40 -47 -13 -14 -47 -55 -77 -93 -29 -37 -57 -67 -62 -67 -4
0 -8 -4 -8 -10 0 -9 -15 -29 -70 -90 -14 -16 -41 -48 -60 -71 -19 -24 -45 -54
-57 -68 -151 -174 -232 -277 -235 -300 -3 -24 8 -57 33 -103 5 -10 9 -27 9
-38 0 -12 5 -18 10 -15 6 3 10 -1 10 -9 0 -14 45 -126 90 -221 10 -22 34 -79
54 -128 20 -48 44 -106 55 -130 10 -23 27 -62 37 -87 10 -25 21 -47 24 -50 3
-3 6 -12 8 -20 2 -8 12 -33 23 -57 21 -46 42 -95 44 -103 0 -3 7 -16 15 -30 7
-14 13 -27 13 -30 -1 -11 23 -37 44 -48 34 -18 66 0 109 63 22 31 60 86 86
123 26 37 53 76 60 86 7 10 28 39 46 63 17 24 32 46 32 49 0 3 6 12 12 19 29
33 38 45 38 53 0 5 9 17 20 27 11 10 20 24 20 30 0 7 7 16 16 19 9 4 14 9 11
12 -3 3 4 16 15 29 11 13 18 25 17 27 -2 2 5 13 17 26 11 12 52 68 89 125 38
56 74 107 80 112 5 6 16 22 24 37 8 16 18 28 23 28 4 0 8 6 8 14 0 8 7 16 15
20 8 3 15 12 15 21 0 8 5 15 11 15 5 0 7 5 4 10 -3 6 -2 10 2 10 5 0 19 18 33
40 14 22 28 40 32 40 5 0 7 3 5 8 -1 4 19 34 44 67 25 33 65 88 88 123 46 69
56 70 88 9 8 -17 19 -35 24 -41 27 -31 99 -137 99 -145 0 -5 7 -11 15 -15 8
-3 15 -12 15 -21 0 -8 4 -15 8 -15 8 0 44 -55 42 -66 -1 -3 5 -11 13 -17 8 -7
77 -102 152 -212 76 -110 143 -203 149 -207 6 -5 7 -8 1 -8 -6 0 -6 -3 1 -8 6
-4 44 -56 85 -115 41 -60 91 -132 111 -160 21 -29 41 -60 44 -70 4 -9 9 -17
13 -17 4 0 15 -15 26 -32 38 -66 97 -139 118 -147 46 -17 72 5 113 96 22 47
39 89 40 92 0 3 11 29 24 56 13 28 24 52 25 55 5 15 103 245 126 297 18 41 40
92 44 103 6 18 29 71 46 107 11 23 19 44 18 45 -1 2 8 22 19 44 12 23 18 44
15 48 -4 3 -1 6 5 6 7 0 12 9 12 20 0 11 5 20 11 20 5 0 7 5 4 10 -3 6 -2 10
3 10 9 0 10 7 13 55 1 24 -46 88 -146 199 -6 6 -30 36 -55 66 -24 30 -50 62
-57 70 -25 28 -64 75 -126 150 -34 41 -69 82 -79 91 -10 9 -18 19 -18 23 0 6
-30 43 -65 80 -11 12 -32 38 -47 58 -15 20 -33 42 -40 50 -29 30 -85 96 -118
138 -19 25 -47 58 -62 73 -16 16 -28 32 -28 37 0 5 -8 14 -17 19 -10 6 -14 11
-8 11 5 0 -1 7 -13 16 -25 17 -28 36 -9 56 13 15 22 28 64 98 15 25 33 49 40
53 7 4 13 12 13 18 0 5 5 15 10 22 14 16 91 126 160 228 30 44 66 94 78 110
13 16 20 29 15 29 -4 0 -3 4 3 8 12 7 180 259 228 342 30 50 115 220 133 266
6 16 19 56 28 89 9 33 19 67 22 75 7 18 11 46 16 115 3 28 5 55 7 60 1 6 1 12
0 15 -1 3 -4 28 -5 55 -2 28 -6 66 -9 85 -3 19 -8 50 -11 68 -9 58 -65 213
-103 286 -36 69 -155 238 -173 244 -5 2 -9 10 -9 18 0 8 -5 14 -11 14 -6 0
-30 19 -53 43 -23 23 -70 65 -104 92 -34 28 -62 53 -62 58 0 4 -5 7 -11 7 -12
0 -100 59 -111 75 -4 6 -8 7 -8 2 0 -4 -17 3 -37 16 -42 25 -152 80 -168 83
-29 6 -40 10 -45 15 -6 6 -114 39 -145 44 -11 1 -38 7 -60 13 -22 6 -64 13
-94 16 -29 4 -58 9 -62 12 -5 3 -9 -1 -9 -8 0 -9 -3 -10 -8 -2 -4 8 -49 11
-130 11 -68 -1 -124 -2 -125 -3z m76 -928 c10 11 82 12 95 2 8 -7 12 -7 12 1
0 7 8 8 25 1 16 -6 26 -6 31 1 3 6 11 6 17 1 7 -4 28 -9 47 -11 41 -3 200 -40
215 -50 6 -4 36 -15 68 -26 31 -10 57 -23 57 -28 0 -6 3 -8 6 -4 7 6 126 -65
158 -95 11 -10 24 -18 28 -18 5 0 -7 -29 -26 -64 -51 -95 -59 -108 -78 -130
-10 -11 -18 -24 -18 -28 0 -5 -5 -14 -10 -21 -24 -28 -46 -57 -60 -77 -12 -18
-123 -162 -239 -309 -47 -61 -199 -245 -230 -281 -30 -34 -31 -34 -46 -16 -8
11 -25 31 -37 45 -13 14 -39 46 -58 71 -19 25 -39 50 -45 56 -5 6 -21 25 -35
43 -14 18 -33 42 -44 54 -10 12 -30 38 -45 57 -14 19 -36 46 -48 60 -13 14
-23 28 -23 31 0 3 -10 17 -21 30 -12 13 -47 58 -78 99 -31 41 -61 80 -67 86
-5 6 -25 37 -44 68 -19 31 -38 56 -43 56 -4 0 -5 5 -2 10 3 6 1 10 -4 10 -6 0
-11 5 -11 11 0 6 -9 24 -21 40 -11 16 -17 29 -12 29 4 0 3 4 -2 8 -6 4 -17 20
-25 35 -14 28 -13 30 22 61 40 36 265 152 275 142 3 -3 12 -1 20 5 7 6 13 8
13 5 0 -4 8 -2 18 3 24 13 100 28 176 35 21 2 40 6 43 10 3 3 13 1 23 -4 10
-5 20 -7 23 -4z"/>
</g>
</svg>
